<svg xmlns="http://www.w3.org/2000/svg" width="107" height="107" viewBox="0 0 107 107"><defs><style>.a{fill:#fff;}</style></defs><path class="a" d="M36.947,0H12.374A12.388,12.388,0,0,0,0,12.374V36.947A12.388,12.388,0,0,0,12.374,49.32H36.947A12.388,12.388,0,0,0,49.32,36.947V12.374A12.388,12.388,0,0,0,36.947,0Zm4.014,36.947a4.019,4.019,0,0,1-4.014,4.014H12.374a4.019,4.019,0,0,1-4.014-4.014V12.374a4.019,4.019,0,0,1,4.014-4.014H36.947a4.019,4.019,0,0,1,4.014,4.014Z"/><g transform="translate(57.68)"><path class="a" d="M312.781,0H288.539A12.553,12.553,0,0,0,276,12.539V36.781A12.553,12.553,0,0,0,288.539,49.32h24.242A12.553,12.553,0,0,0,325.32,36.781V12.539A12.553,12.553,0,0,0,312.781,0Zm4.18,36.781a4.184,4.184,0,0,1-4.18,4.18H288.539a4.184,4.184,0,0,1-4.18-4.18V12.539a4.184,4.184,0,0,1,4.18-4.18h24.242a4.184,4.184,0,0,1,4.18,4.18Z" transform="translate(-276)"/></g><g transform="translate(0 57.68)"><path class="a" d="M36.947,276H12.374A12.388,12.388,0,0,0,0,288.374v24.573A12.388,12.388,0,0,0,12.374,325.32H36.947A12.388,12.388,0,0,0,49.32,312.947V288.374A12.388,12.388,0,0,0,36.947,276Zm4.014,36.947a4.019,4.019,0,0,1-4.014,4.014H12.374a4.019,4.019,0,0,1-4.014-4.014V288.374a4.019,4.019,0,0,1,4.014-4.014H36.947a4.019,4.019,0,0,1,4.014,4.014Z" transform="translate(0 -276)"/></g><g transform="translate(57.68 57.68)"><path class="a" d="M312.781,276H288.539A12.553,12.553,0,0,0,276,288.539v24.242a12.553,12.553,0,0,0,12.539,12.539h24.242a12.553,12.553,0,0,0,12.539-12.539V288.539A12.553,12.553,0,0,0,312.781,276Zm4.18,36.781a4.184,4.184,0,0,1-4.18,4.18H288.539a4.184,4.184,0,0,1-4.18-4.18V288.539a4.184,4.184,0,0,1,4.18-4.18h24.242a4.184,4.184,0,0,1,4.18,4.18Z" transform="translate(-276 -276)"/></g></svg>