<svg xmlns="http://www.w3.org/2000/svg" width="129.717" height="129.721" viewBox="0 0 129.717 129.721"><defs><style>.a{fill:#fff;}</style></defs><path class="a" d="M39.645,172.667a2.533,2.533,0,0,0-4.076.7L.834,245.823q-.029.059-.054.12A8.574,8.574,0,0,0,2.5,255.6a8.3,8.3,0,0,0,5.947,2.488,9.643,9.643,0,0,0,3.714-.773c.041-.017.081-.035.12-.054L84.735,222.53a2.534,2.534,0,0,0,.7-4.076Zm-1.053,6.112,25.63,25.63c-9.917-.408-20.8-4.224-32.459-11.385ZM10.151,252.664a3.612,3.612,0,0,1-4.073-.644,3.613,3.613,0,0,1-.644-4.072l6.839-14.265a140.3,140.3,0,0,0,14.779,10.88Zm49.654-23.8a67.144,67.144,0,0,1-9.362-3.105,2.533,2.533,0,1,0-1.931,4.684q2.251.928,4.481,1.686l-20.509,9.831a132.828,132.828,0,0,1-17.949-13l7.088-14.786c2.17,1.714,4.359,3.346,6.534,4.871a2.534,2.534,0,0,0,2.909-4.149c-2.4-1.679-4.809-3.5-7.2-5.41l5.69-11.87c13,7.905,25.226,11.9,36.434,11.9q1.622,0,3.218-.113l10.106,10.106Z" transform="translate(-0.008 -128.37)"/><path class="a" d="M173.489,29.527a13.723,13.723,0,0,1,1.557,1.564c-.35.393-1.06,1.038-1.559,1.491a8.223,8.223,0,0,0,5.148,14.3c.132.006.264.009.4.009a8.164,8.164,0,0,0,5.525-2.141,25.007,25.007,0,0,0,4.238-4.64,15.646,15.646,0,0,0,2.792-9.052c0-7.308-3.735-10.7-7.031-13.694A13.738,13.738,0,0,1,183,15.8c.349-.392,1.058-1.036,1.559-1.491A8.223,8.223,0,0,0,173.489,2.14a24.981,24.981,0,0,0-4.239,4.641,15.644,15.644,0,0,0-2.792,9.053C166.458,23.142,170.194,26.534,173.489,29.527Zm5.385,12.29A3.157,3.157,0,0,1,176.9,36.33c.632-.574,1.242-1.128,1.748-1.67l2.408,2.433a2.832,2.832,0,0,1,.048,3.944,3.126,3.126,0,0,1-2.225.779Zm7.646-10.763a10.646,10.646,0,0,1-.717,3.954,7.888,7.888,0,0,0-1.15-1.478l-6.518-6.584-.012-.011c-.4-.4-.82-.788-1.227-1.157-3-2.725-5.371-4.877-5.371-9.942a10.646,10.646,0,0,1,.717-3.954,7.888,7.888,0,0,0,1.15,1.478l6.518,6.584.013.012c.4.4.819.787,1.226,1.156C184.15,23.836,186.52,25.988,186.52,31.053Zm-7.5-25.986q.076,0,.152,0a3.157,3.157,0,0,1,1.974,5.49c-.631.573-1.239,1.126-1.743,1.666l-2.408-2.433a2.831,2.831,0,0,1-.047-3.944,3.13,3.13,0,0,1,2.073-.782Z" transform="translate(-124.29 0)"/><path class="a" d="M369.62,80.127a7.609,7.609,0,0,0,10.748,0l3.583-3.583a7.609,7.609,0,0,0,0-10.748l-3.583-3.583a7.609,7.609,0,0,0-10.748,0L366.037,65.8a7.615,7.615,0,0,0,0,10.748Zm0-10.748L373.2,65.8a2.548,2.548,0,0,1,3.582,0l3.583,3.583a2.548,2.548,0,0,1,0,3.582l-3.583,3.583a2.548,2.548,0,0,1-3.582,0l-3.583-3.583a2.548,2.548,0,0,1,0-3.582Z" transform="translate(-271.651 -44.793)"/><path class="a" d="M371.178,252.891a8.223,8.223,0,0,0-11.619.549c-.451.5-1.1,1.207-1.489,1.557a13.755,13.755,0,0,1-1.564-1.558c-2.993-3.3-6.385-7.03-13.693-7.03a15.644,15.644,0,0,0-9.053,2.792,24.992,24.992,0,0,0-4.639,4.237c-.031.034-.06.07-.09.1l0,0a8.222,8.222,0,0,0,12.26,10.959c.45-.5,1.094-1.2,1.487-1.554a13.7,13.7,0,0,1,1.563,1.557c2.993,3.3,6.385,7.031,13.694,7.031a15.646,15.646,0,0,0,9.053-2.792,25.009,25.009,0,0,0,4.639-4.237,8.233,8.233,0,0,0-.547-11.617Zm-7.869,3.957a3.155,3.155,0,0,1,4.708,4.2,2.832,2.832,0,0,1-3.943-.048l-2.433-2.408c.541-.505,1.095-1.114,1.668-1.745ZM337.538,261.1a3.155,3.155,0,0,1-4.707-4.2,2.832,2.832,0,0,1,3.942.049l2.433,2.408c-.54.505-1.094,1.114-1.667,1.746Zm10.552,0c-.37-.408-.754-.829-1.16-1.229l-.009-.01-6.584-6.518a7.9,7.9,0,0,0-1.478-1.15,10.647,10.647,0,0,1,3.954-.717c5.065,0,7.217,2.37,9.943,5.371.369.406.751.826,1.155,1.225l.013.014,6.584,6.518a7.9,7.9,0,0,0,1.478,1.15,10.647,10.647,0,0,1-3.954.717C352.967,266.47,350.815,264.1,348.09,261.1Z" transform="translate(-244.145 -183.984)"/><path class="a" d="M466.757,32.9a2.533,2.533,0,0,0,0-5.067h0a2.533,2.533,0,0,0,0,5.067Z" transform="translate(-346.62 -20.779)"/><path class="a" d="M330.138,25.677a2.533,2.533,0,1,0,0-5.067h0a2.533,2.533,0,1,0,0,5.067Z" transform="translate(-244.612 -15.389)"/><path class="a" d="M298.849,116.362a2.533,2.533,0,1,0,0-5.067h0a2.533,2.533,0,0,0,0,5.067Z" transform="translate(-221.249 -83.1)"/><path class="a" d="M291.216,208.44a2.533,2.533,0,1,0,0-5.067h0a2.533,2.533,0,1,0,0,5.067Z" transform="translate(-215.55 -151.851)"/><path class="a" d="M471.446,166.98v0a2.533,2.533,0,1,0,2.533-2.535A2.533,2.533,0,0,0,471.446,166.982Z" transform="translate(-352.013 -122.787)"/><path class="a" d="M380.76,198.27v0a2.533,2.533,0,1,0,2.533-2.535A2.533,2.533,0,0,0,380.76,198.272Z" transform="translate(-284.301 -146.15)"/><path class="a" d="M147.406,363.842h0a2.533,2.533,0,1,0,2.535,2.533A2.533,2.533,0,0,0,147.4,363.842Z" transform="translate(-108.172 -271.667)"/></svg>