<svg xmlns="http://www.w3.org/2000/svg" width="109.602" height="101.589" viewBox="0 0 109.602 101.589"><defs><style>.a{fill:#fff;}</style></defs><path class="a" d="M114.6,16.8a5.516,5.516,0,0,0-7.8,0L57.277,66.33,34.464,43.516a5.518,5.518,0,0,0-7.8,7.8L53.375,78.036a5.519,5.519,0,0,0,7.805,0L114.6,24.6A5.519,5.519,0,0,0,114.6,16.8Z" transform="translate(-6.617 -8.018)"/><path class="a" d="M96.071,49.592a5.518,5.518,0,0,0-5.518,5.518V96H11.037V16.482H74A5.518,5.518,0,0,0,74,5.445H5.518A5.518,5.518,0,0,0,0,10.963v90.552a5.518,5.518,0,0,0,5.518,5.518H96.071a5.518,5.518,0,0,0,5.518-5.518V55.11A5.518,5.518,0,0,0,96.071,49.592Z" transform="translate(0 -5.445)"/></svg>