<svg width="24" height="24" viewBox="0 0 24 24" fill="none" xmlns="http://www.w3.org/2000/svg">
<path d="M1.84615 14H22.1538C23.1692 14 24 13.1 24 12C24 10.9 23.1692 10 22.1538 10H1.84615C0.830769 10 0 10.9 0 12C0 13.1 0.830769 14 1.84615 14ZM7.38462 4H22.1538C23.1692 4 24 3.1 24 2C24 0.9 23.1692 0 22.1538 0H7.38462C6.36923 0 5.53846 0.9 5.53846 2C5.53846 3.1 6.36923 4 7.38462 4Z" fill="black"/>
<path d="M22.1538 24H7.38462C6.36923 24 5.53846 23.1 5.53846 22C5.53846 20.9 6.36923 20 7.38462 20H22.1538C23.1692 20 24 20.9 24 22C24 23.1 23.1692 24 22.1538 24Z" fill="black"/>
<path d="M22.1538 14H1.84615C0.830769 14 0 13.1 0 12C0 10.9 0.830769 10 1.84615 10H22.1538C23.1692 10 24 10.9 24 12C24 13.1 23.1692 14 22.1538 14Z" fill="black"/>
<path d="M22.1538 24H7.38462C6.36923 24 5.53846 23.1 5.53846 22C5.53846 20.9 6.36923 20 7.38462 20H22.1538C23.1692 20 24 20.9 24 22C24 23.1 23.1692 24 22.1538 24Z" fill="black"/>
</svg>
