<svg xmlns="http://www.w3.org/2000/svg" width="47.353" height="47.353" viewBox="0 0 47.353 47.353"><defs><style>.a{fill:#d90000;}</style></defs><path class="a" d="M23.676,47.353A23.676,23.676,0,1,1,47.353,23.676,23.7,23.7,0,0,1,23.676,47.353Zm0-43.971A20.294,20.294,0,1,0,43.971,23.676,20.317,20.317,0,0,0,23.676,3.382Zm0,0"/><path class="a" d="M164.89,166.582a1.685,1.685,0,0,1-1.2-.5l-16.912-16.912a1.691,1.691,0,1,1,2.391-2.391L166.085,163.7a1.691,1.691,0,0,1-1.2,2.887Zm0,0" transform="translate(-132.757 -132.759)"/><path class="a" d="M147.977,166.581a1.691,1.691,0,0,1-1.2-2.887l16.912-16.912a1.691,1.691,0,1,1,2.391,2.391l-16.912,16.912A1.685,1.685,0,0,1,147.977,166.581Zm0,0" transform="translate(-132.756 -132.757)"/></svg>