<svg xmlns="http://www.w3.org/2000/svg" width="230" height="230" viewBox="0 0 230 230"><defs><style>.a{fill:#00c42e;}</style></defs><path class="a" d="M165.835,78.51a8.983,8.983,0,0,1,0,12.706l-60.273,60.274a8.986,8.986,0,0,1-12.706,0L64.164,122.8a8.983,8.983,0,0,1,12.7-12.7l22.34,22.34,53.92-53.922a8.986,8.986,0,0,1,12.706,0ZM230,115A115,115,0,1,1,115,0,114.937,114.937,0,0,1,230,115Zm-17.969,0A97.031,97.031,0,1,0,115,212.032,96.978,96.978,0,0,0,212.031,115Zm0,0" transform="translate(0 0)"/></svg>