<svg xmlns="http://www.w3.org/2000/svg" width="125.307" height="186" viewBox="0 0 125.307 186"><defs><style>.a{fill:#a52a8e;}.b{fill:#0f1f4e;}</style></defs><g transform="translate(-76.29)"><g transform="translate(76.29 0)"><path class="a" d="M162.022,93.943h55.14a2.108,2.108,0,0,0,0-4.208h-55.14a2.159,2.159,0,0,0-.259,0,2.108,2.108,0,1,0,.259,4.208Z" transform="translate(-126.572 -54.038)"/><path class="b" d="M151.946,296.436v-.016a18.109,18.109,0,1,1,0,.016Zm9.814,27.937a13.9,13.9,0,1,1,.011-19.655V304.7a13.918,13.918,0,0,1-.011,19.671Z" transform="translate(-110.951 -178.511)"/><path class="a" d="M210.275,158.44H126.854a2.108,2.108,0,0,0,0,4.208h83.422a2.108,2.108,0,0,0,0-4.208Z" transform="translate(-105.549 -95.416)"/><path class="b" d="M201.478,23.731l-.064-.159-.04-.08v-.04l-.056-.072L178.248.31l-.135-.119-.088-.048h-.056l-.1-.04h-.1a2.071,2.071,0,0,0-.493-.1H83.975V.008A7.709,7.709,0,0,0,76.29,7.693V149.031a7.709,7.709,0,0,0,7.685,7.685h16.508a8.423,8.423,0,0,0,2.013,2.315v24.7a2.02,2.02,0,0,0,.366,1.5l0,0a2.1,2.1,0,0,0,2.956.29l11.273-9.252,11.082,9.2a2.085,2.085,0,0,0,1.368.517h.04a2.045,2.045,0,0,0,2-2.092V159.445a9.547,9.547,0,0,0,2.506-2.7H193.9a7.714,7.714,0,0,0,7.693-7.685V24.336A2.079,2.079,0,0,0,201.478,23.731Zm-22.252-16.5,15.911,15.911L182.7,23.135a3.477,3.477,0,0,1-3.469-3.469ZM127.476,179.461l-9.077-7.518a2.1,2.1,0,0,0-2.665,0l-9.165,7.51V160.869a8.62,8.62,0,0,0,4.145-.453,8.544,8.544,0,0,0,6.539,3.071,9.013,9.013,0,0,0,6.531-3.071,8.531,8.531,0,0,0,2.387.509,7.6,7.6,0,0,0,1.3,0Zm9.061-36.412a4.535,4.535,0,0,1,.382,4.932,4.3,4.3,0,0,1-4.105,2.132,2.108,2.108,0,0,0-2.275,1.917,5.1,5.1,0,0,1-.469,2.729,4.289,4.289,0,0,1-4.105,2.3,4.548,4.548,0,0,1-1.408-.334h-1.313a1.8,1.8,0,0,0-1.289-.247h-.35l-.127.072-.072.072-.064.08-.064.088h-.143a4.3,4.3,0,0,1-7.8,0,2.108,2.108,0,0,0-2.792-1.018,4.328,4.328,0,0,1-7.064-3.715,2.109,2.109,0,0,0-2.307-2.275,4.3,4.3,0,0,1-3.874-6.754,2.1,2.1,0,0,0-.8-3.1,4.312,4.312,0,0,1,0-7.8,2.1,2.1,0,0,0,.8-3.142,4.3,4.3,0,0,1,3.93-6.714,2.109,2.109,0,0,0,2.275-2.307,4.318,4.318,0,0,1,6.778-3.89,2.1,2.1,0,0,0,3.1-.8,4.256,4.256,0,0,1,3.9-2.482v-.016a4.249,4.249,0,0,1,3.4,2.824,2.108,2.108,0,0,0,2.792,1.018,4.519,4.519,0,0,1,4.932-.39,4.3,4.3,0,0,1,2.132,4.105,2.108,2.108,0,0,0,1.917,2.275,5.1,5.1,0,0,1,2.729.469,4.3,4.3,0,0,1,1.535,6.285,2.1,2.1,0,0,0,.517,2.92,5.082,5.082,0,0,1,2.132,1.774,4.328,4.328,0,0,1-1.822,6.213A2.1,2.1,0,0,0,136.537,143.048Zm61.576,6.038a3.49,3.49,0,0,1-3.469,3.477H138.47v-.024a8.5,8.5,0,0,0,3.222-9.984,8.481,8.481,0,0,0,0-13.071,8.5,8.5,0,0,0-6.563-11.329,8.5,8.5,0,0,0-11.321-6.531,8.488,8.488,0,0,0-13.071,0,8.488,8.488,0,0,0-11.289,6.524,8.5,8.5,0,0,0-6.524,11.329,8.481,8.481,0,0,0,0,13.071,8.512,8.512,0,0,0,3.182,9.992H83.975a3.492,3.492,0,0,1-3.477-3.477V7.693a3.492,3.492,0,0,1,3.477-3.477h91.011V19.69a7.7,7.7,0,0,0,7.677,7.677h15.45Z" transform="translate(-76.29 0)"/><path class="a" d="M271.909,276.034H229.442a2.169,2.169,0,0,0-.259,0,2.108,2.108,0,0,0,.259,4.208h42.467a2.108,2.108,0,0,0,0-4.208Z" transform="translate(-167.175 -166.232)"/><path class="a" d="M211.858,254.747a2.108,2.108,0,0,0-1.975-2.234H126.462a2.156,2.156,0,0,0-.259,0,2.108,2.108,0,1,0,.259,4.208h83.422A2.107,2.107,0,0,0,211.858,254.747Z" transform="translate(-105.157 -152.067)"/><path class="a" d="M162.414,113.88a2.108,2.108,0,0,0,0,4.208h55.14a2.108,2.108,0,0,0,0-4.208Z" transform="translate(-126.964 -68.581)"/><path class="a" d="M126.462,233.2h83.422a2.108,2.108,0,0,0,0-4.208H126.462a2.163,2.163,0,0,0-.259,0,2.108,2.108,0,1,0,.259,4.208Z" transform="translate(-105.157 -137.903)"/><path class="a" d="M126.854,205.48a2.108,2.108,0,0,0,0,4.208h83.422a2.108,2.108,0,0,0,0-4.208Z" transform="translate(-105.549 -123.745)"/><path class="a" d="M209.883,181.954H126.462a2.163,2.163,0,0,0-.259,0,2.108,2.108,0,1,0,.259,4.208h83.422a2.108,2.108,0,0,0,0-4.208Z" transform="translate(-105.157 -109.575)"/></g></g></svg>