<svg xmlns="http://www.w3.org/2000/svg" width="62.144" height="62.143" viewBox="0 0 62.144 62.143"><defs><style>.a{fill:none;stroke:#058f1c;stroke-width:3px;}</style></defs><g transform="translate(1.732 1.73)"><path class="a" d="M54.747,14.672l-6.809-3.931-3.93-6.808H36.148L29.339,0,22.531,3.933H14.67l-3.931,6.809-6.807,3.93v7.861L0,29.341,3.931,36.15v7.861l6.809,3.931,3.931,6.809h7.861l6.808,3.93,6.809-3.931h7.861l3.931-6.809,6.809-3.931V36.149L58.68,29.34l-3.931-6.809v-7.86ZM26.691,41.35a2.856,2.856,0,0,1-3.971,0L14.14,32.769a2.754,2.754,0,0,1,0-3.893L16.411,26.6a2.754,2.754,0,0,1,3.893,0l4.4,4.4L38.373,17.337a2.754,2.754,0,0,1,3.893,0l2.272,2.272a2.754,2.754,0,0,1,0,3.893Z"/></g></svg>