<svg xmlns="http://www.w3.org/2000/svg" width="61.333" height="61.333" viewBox="0 0 61.333 61.333"><defs><style>.a{fill:#ffa406;}</style></defs><g transform="translate(21.467 14.019)"><path class="a" d="M135.708,94.032a7.41,7.41,0,0,0-1.752-1.971,10.927,10.927,0,0,0-2.775-1.387q-1.424-.438-3.067-.876v-6.06a3.463,3.463,0,0,1,1.387.584,6.107,6.107,0,0,1,1.533,2.117,4.329,4.329,0,0,0,.949,1.314,1.717,1.717,0,0,0,1.241.438,2.1,2.1,0,0,0,1.533-.657A2.031,2.031,0,0,0,135.343,86a3.716,3.716,0,0,0-.511-1.9,6.063,6.063,0,0,0-1.533-1.9,9.093,9.093,0,0,0-2.629-1.46,12.382,12.382,0,0,0-2.556-.438v-2.19a1.314,1.314,0,0,0-2.629,0V80.3a11.914,11.914,0,0,0-3.359.73,6.3,6.3,0,0,0-3.067,2.337,5.878,5.878,0,0,0-1.1,3.5,5.791,5.791,0,0,0,1.022,3.432,6.658,6.658,0,0,0,2.7,2.19,17.8,17.8,0,0,0,3.8,1.241v7.375a4.408,4.408,0,0,1-1.168-.365,4.122,4.122,0,0,1-1.46-1.241,9.2,9.2,0,0,1-.949-1.9,3.54,3.54,0,0,0-.876-1.46,2.1,2.1,0,0,0-1.314-.511,2.117,2.117,0,0,0-2.117,2.117,5.692,5.692,0,0,0,1.022,3.067,7.348,7.348,0,0,0,2.629,2.556,10.673,10.673,0,0,0,4.308,1.241v4.235a1.314,1.314,0,1,0,2.629,0v-4.235a10.4,10.4,0,0,0,3.87-.949,7.36,7.36,0,0,0,3.213-2.7,7.039,7.039,0,0,0,1.1-3.87A6.775,6.775,0,0,0,135.708,94.032ZM125.486,89.14a.268.268,0,0,0-.219-.073,11.234,11.234,0,0,1-1.387-.584,3.233,3.233,0,0,1-1.1-.876,1.8,1.8,0,0,1-.365-1.241,2.413,2.413,0,0,1,1.168-1.971,4.914,4.914,0,0,1,1.9-.73Zm4.819,11.025a4.945,4.945,0,0,1-2.19.876V94.4c.365.073.657.219.949.292a5.514,5.514,0,0,1,1.825,1.1,2.477,2.477,0,0,1,.73,1.9A3.054,3.054,0,0,1,130.3,100.165Z" transform="translate(-117.6 -76.8)"/></g><path class="a" d="M30.667,0A30.667,30.667,0,1,0,61.333,30.667,30.71,30.71,0,0,0,30.667,0Zm0,58.7A28.038,28.038,0,1,1,58.7,30.667,28.045,28.045,0,0,1,30.667,58.7Z"/><g transform="translate(5.841 5.841)"><path class="a" d="M56.825,32A24.825,24.825,0,1,0,81.651,56.825,24.9,24.9,0,0,0,56.825,32Zm0,47.022a22.2,22.2,0,1,1,22.2-22.2A22.187,22.187,0,0,1,56.825,79.022Z" transform="translate(-32 -32)"/></g></svg>