<svg xmlns="http://www.w3.org/2000/svg" width="52.333" height="52.333" viewBox="0 0 52.333 52.333"><defs><style>.a{fill:#64004d;}</style></defs><path class="a" d="M62.715,29.253a.868.868,0,0,0,.868-.868V17.347a.868.868,0,0,0-.868-.868H59.367V14.474a3.224,3.224,0,0,0-6.449,0v2.005h-31V14.474a3.224,3.224,0,0,0-6.449,0v2.005H12.118a.868.868,0,0,0-.868.868V28.385a.868.868,0,0,0,.868.868h3.348v2.025H12.118a.868.868,0,0,0-.868.868V43.183a.868.868,0,0,0,.868.868h3.348v17.8H12.118a.868.868,0,0,0,0,1.736h50.6a.868.868,0,1,0,0-1.736H59.367v-17.8h3.348a.868.868,0,0,0,.868-.868V32.146a.868.868,0,0,0-.868-.868H59.367V29.253Zm-.868-1.736h-12.8l6.53-9.3h6.268Zm-27.9,5.5-6.53,9.3H21.374l6.53-9.3Zm11.347,0-6.53,9.3H29.538l6.53-9.3ZM21.915,54.985h31v6.862h-31Zm31-1.736h-31v-9.2h31ZM40.886,42.315l6.53-9.3h6.042l-6.53,9.3ZM21.915,31.278V29.253h31v2.025ZM33.947,18.216l-6.53,9.3H21.374l6.53-9.3Zm11.347,0-6.53,9.3H29.538l6.53-9.3Zm8.164,0-6.53,9.3H40.886l6.53-9.3Zm1.2-3.741a1.488,1.488,0,0,1,2.976,0v2.005H54.654Zm-37.452,0a1.488,1.488,0,0,1,2.976,0v2.005H17.2Zm-4.216,3.741h12.8l-6.532,9.3H12.986ZM17.2,29.253h2.976v2.025H17.2Zm-4.216,3.762h12.8l-6.532,9.3H12.986ZM17.2,44.051h2.976v17.8H17.2Zm40.428,17.8H54.654v-17.8h2.976Zm4.216-19.532h-12.8l6.53-9.3h6.268ZM57.631,31.278H54.654V29.253h2.976Z" transform="translate(-11.25 -11.25)"/></svg>