<svg xmlns="http://www.w3.org/2000/svg" width="62" height="48.715" viewBox="0 0 62 48.715"><defs><style>.a{fill:#03c5ab;}</style></defs><g transform="translate(0 -51.198)"><g transform="translate(0 51.198)"><path class="a" d="M61.351,67.347l-15.5-15.5a2.214,2.214,0,0,0-3.78,1.566v6.643h-15.5a2.214,2.214,0,0,0,0,4.429H44.286A2.214,2.214,0,0,0,46.5,62.27V58.757L56.655,68.912,46.5,79.067V75.555a2.214,2.214,0,0,0-2.214-2.214H19.928V66.7a2.214,2.214,0,0,0-3.78-1.566l-15.5,15.5a2.214,2.214,0,0,0,0,3.131l15.5,15.5a2.214,2.214,0,0,0,1.566.649,2.187,2.187,0,0,0,.848-.168A2.214,2.214,0,0,0,19.928,97.7V91.056h15.5a2.214,2.214,0,1,0,0-4.429H17.714A2.214,2.214,0,0,0,15.5,88.841v3.512L5.345,82.2,15.5,72.043v3.512a2.214,2.214,0,0,0,2.214,2.214H42.071v6.643a2.214,2.214,0,0,0,3.78,1.566l15.5-15.5A2.214,2.214,0,0,0,61.351,67.347Z" transform="translate(0 -51.198)"/></g></g></svg>