<svg xmlns="http://www.w3.org/2000/svg" width="42.976" height="42.977" viewBox="0 0 42.976 42.977"><defs><style>.a{fill:#250b48;}</style></defs><path class="a" d="M37.187,0H5.793A5.791,5.791,0,0,0,0,5.791V37.185a5.791,5.791,0,0,0,5.791,5.791H21.276L21.3,27.619h-3.99a.941.941,0,0,1-.941-.938l-.019-4.95a.941.941,0,0,1,.941-.945h3.983V16c0-5.551,3.39-8.573,8.342-8.573h4.063a.941.941,0,0,1,.941.941v4.174a.942.942,0,0,1-.941.941H31.189c-2.693,0-3.214,1.28-3.214,3.158v4.141h5.917a.941.941,0,0,1,.935,1.052l-.587,4.95a.941.941,0,0,1-.935.831H28l-.026,15.357h9.213a5.791,5.791,0,0,0,5.791-5.791V5.791A5.791,5.791,0,0,0,37.187,0Z" transform="translate(-0.002)"/></svg>