<svg xmlns="http://www.w3.org/2000/svg" width="42.915" height="42.923" viewBox="0 0 42.915 42.923"><defs><style>.a{fill:#250b48;}</style></defs><path class="a" d="M43.254,12.62a15.684,15.684,0,0,0-1-5.207,11,11,0,0,0-6.281-6.28,15.725,15.725,0,0,0-5.207-1C28.471.025,27.742,0,21.914,0s-6.557.025-8.846.126a15.689,15.689,0,0,0-5.207,1A10.473,10.473,0,0,0,4.054,3.606,10.568,10.568,0,0,0,1.581,7.4a15.726,15.726,0,0,0-1,5.207c-.109,2.3-.134,3.027-.134,8.855s.025,6.557.126,8.846a15.683,15.683,0,0,0,1,5.207,10.994,10.994,0,0,0,6.28,6.28,15.727,15.727,0,0,0,5.207,1c2.289.1,3.019.126,8.846.126s6.557-.025,8.846-.126a15.68,15.68,0,0,0,5.207-1,10.979,10.979,0,0,0,6.281-6.28,15.737,15.737,0,0,0,1-5.207c.1-2.289.126-3.019.126-8.846s-.009-6.557-.109-8.846ZM39.389,30.144a11.765,11.765,0,0,1-.738,3.983A7.12,7.12,0,0,1,34.576,38.2a11.807,11.807,0,0,1-3.983.738c-2.264.1-2.943.126-8.67.126s-6.415-.025-8.67-.126A11.759,11.759,0,0,1,9.27,38.2,6.6,6.6,0,0,1,6.8,36.6a6.673,6.673,0,0,1-1.6-2.465,11.808,11.808,0,0,1-.738-3.983c-.1-2.264-.126-2.943-.126-8.67s.025-6.415.126-8.67A11.759,11.759,0,0,1,5.2,8.83a6.524,6.524,0,0,1,1.61-2.465,6.663,6.663,0,0,1,2.465-1.6,11.815,11.815,0,0,1,3.983-.738c2.264-.1,2.943-.126,8.67-.126s6.415.025,8.67.126a11.765,11.765,0,0,1,3.983.738,6.6,6.6,0,0,1,2.465,1.6,6.672,6.672,0,0,1,1.6,2.465,11.813,11.813,0,0,1,.738,3.983c.1,2.264.126,2.943.126,8.67s-.025,6.4-.126,8.662Zm0,0" transform="translate(-0.449 0)"/><path class="a" d="M135.975,124.5A11.026,11.026,0,1,0,147,135.526,11.029,11.029,0,0,0,135.975,124.5Zm0,18.179a7.152,7.152,0,1,1,7.153-7.152,7.154,7.154,0,0,1-7.153,7.152Zm0,0" transform="translate(-114.51 -114.061)"/><path class="a" d="M367.6,91.176a2.574,2.574,0,1,1-2.574-2.574A2.574,2.574,0,0,1,367.6,91.176Zm0,0" transform="translate(-332.096 -81.173)"/></svg>