<svg xmlns="http://www.w3.org/2000/svg" width="52.808" height="42.906" viewBox="0 0 52.808 42.906"><defs><style>.a{fill:#250b48;}</style></defs><g transform="translate(0 0)"><path class="a" d="M52.808,53.079a22.572,22.572,0,0,1-6.238,1.71,10.765,10.765,0,0,0,4.763-5.984,21.636,21.636,0,0,1-6.865,2.621,10.825,10.825,0,0,0-18.727,7.4,11.147,11.147,0,0,0,.251,2.469A30.644,30.644,0,0,1,3.677,49.974,10.829,10.829,0,0,0,7,64.443,10.692,10.692,0,0,1,2.112,63.11v.119a10.876,10.876,0,0,0,8.674,10.637,10.806,10.806,0,0,1-2.838.356,9.573,9.573,0,0,1-2.05-.185,10.929,10.929,0,0,0,10.116,7.542A21.753,21.753,0,0,1,2.591,86.2,20.277,20.277,0,0,1,0,86.048a30.479,30.479,0,0,0,16.608,4.858c19.922,0,30.814-16.5,30.814-30.807,0-.479-.017-.941-.04-1.4A21.6,21.6,0,0,0,52.808,53.079Z" transform="translate(0 -48)"/></g></svg>